<svg width="103" height="26" viewBox="0 0 103 26" fill="none" xmlns="http://www.w3.org/2000/svg">
<path d="M0 0H103L96.9144 13L103 26H0V0Z" fill="url(#paint0_linear)"/>
<path d="M13.923 18V8.9H18.135C19.019 8.9 19.734 9.15567 20.28 9.667C20.8347 10.1697 21.112 10.824 21.112 11.63C21.112 12.4273 20.8347 13.0773 20.28 13.58C19.7253 14.0827 19.0103 14.334 18.135 14.334H15.288V18H13.923ZM17.992 10.096H15.288V13.177H17.992C18.5207 13.177 18.941 13.0383 19.253 12.761C19.5737 12.475 19.734 12.098 19.734 11.63C19.734 11.162 19.5737 10.7893 19.253 10.512C18.941 10.2347 18.5207 10.096 17.992 10.096ZM22.5177 18V8.9H26.6517C27.5531 8.9 28.2811 9.15133 28.8357 9.654C29.3991 10.148 29.6807 10.7937 29.6807 11.591C29.6807 12.189 29.5117 12.709 29.1737 13.151C28.8357 13.5843 28.3807 13.8963 27.8087 14.087L29.8367 18H28.3287L26.4437 14.269H23.8827V18H22.5177ZM26.5347 10.096H23.8827V13.138H26.5347C27.0634 13.138 27.4881 12.9993 27.8087 12.722C28.1381 12.436 28.3027 12.0677 28.3027 11.617C28.3027 11.1577 28.1381 10.7893 27.8087 10.512C27.4881 10.2347 27.0634 10.096 26.5347 10.096ZM40.1741 13.45C40.1741 14.1 40.0484 14.7153 39.7971 15.296C39.5544 15.868 39.2207 16.3663 38.7961 16.791C38.3714 17.207 37.8687 17.5363 37.2881 17.779C36.7074 18.0217 36.0877 18.143 35.4291 18.143C34.7704 18.143 34.1507 18.0217 33.5701 17.779C32.9894 17.5363 32.4867 17.207 32.0621 16.791C31.6461 16.3663 31.3124 15.868 31.0611 15.296C30.8184 14.7153 30.6971 14.1 30.6971 13.45C30.6971 12.8 30.8184 12.189 31.0611 11.617C31.3124 11.0363 31.6461 10.538 32.0621 10.122C32.4867 9.69733 32.9894 9.36367 33.5701 9.121C34.1507 8.87833 34.7704 8.757 35.4291 8.757C36.0877 8.757 36.7074 8.87833 37.2881 9.121C37.8687 9.36367 38.3714 9.69733 38.7961 10.122C39.2207 10.538 39.5544 11.0363 39.7971 11.617C40.0484 12.189 40.1741 12.8 40.1741 13.45ZM38.7831 13.45C38.7831 12.9647 38.6964 12.514 38.5231 12.098C38.3497 11.6733 38.1114 11.3093 37.8081 11.006C37.5134 10.694 37.1581 10.4513 36.7421 10.278C36.3347 10.1047 35.8971 10.018 35.4291 10.018C34.9611 10.018 34.5234 10.1047 34.1161 10.278C33.7087 10.4513 33.3534 10.694 33.0501 11.006C32.7554 11.3093 32.5214 11.6733 32.3481 12.098C32.1747 12.514 32.0881 12.9647 32.0881 13.45C32.0881 13.9353 32.1747 14.3903 32.3481 14.815C32.5214 15.231 32.7554 15.5907 33.0501 15.894C33.3534 16.1973 33.7087 16.44 34.1161 16.622C34.5234 16.7953 34.9611 16.882 35.4291 16.882C35.8971 16.882 36.3347 16.7953 36.7421 16.622C37.1581 16.44 37.5134 16.1973 37.8081 15.894C38.1114 15.5907 38.3497 15.231 38.5231 14.815C38.6964 14.3903 38.7831 13.9353 38.7831 13.45ZM46.2912 17.35L42.8982 10.59V18H41.6242V8.9H43.4442L46.3042 14.711L49.1512 8.9H50.9712V18H49.6842V10.577L46.2912 17.35ZM61.9084 13.45C61.9084 14.1 61.7828 14.7153 61.5314 15.296C61.2888 15.868 60.9551 16.3663 60.5304 16.791C60.1058 17.207 59.6031 17.5363 59.0224 17.779C58.4418 18.0217 57.8221 18.143 57.1634 18.143C56.5048 18.143 55.8851 18.0217 55.3044 17.779C54.7238 17.5363 54.2211 17.207 53.7964 16.791C53.3804 16.3663 53.0468 15.868 52.7954 15.296C52.5528 14.7153 52.4314 14.1 52.4314 13.45C52.4314 12.8 52.5528 12.189 52.7954 11.617C53.0468 11.0363 53.3804 10.538 53.7964 10.122C54.2211 9.69733 54.7238 9.36367 55.3044 9.121C55.8851 8.87833 56.5048 8.757 57.1634 8.757C57.8221 8.757 58.4418 8.87833 59.0224 9.121C59.6031 9.36367 60.1058 9.69733 60.5304 10.122C60.9551 10.538 61.2888 11.0363 61.5314 11.617C61.7828 12.189 61.9084 12.8 61.9084 13.45ZM60.5174 13.45C60.5174 12.9647 60.4308 12.514 60.2574 12.098C60.0841 11.6733 59.8458 11.3093 59.5424 11.006C59.2478 10.694 58.8924 10.4513 58.4764 10.278C58.0691 10.1047 57.6314 10.018 57.1634 10.018C56.6954 10.018 56.2578 10.1047 55.8504 10.278C55.4431 10.4513 55.0878 10.694 54.7844 11.006C54.4898 11.3093 54.2558 11.6733 54.0824 12.098C53.9091 12.514 53.8224 12.9647 53.8224 13.45C53.8224 13.9353 53.9091 14.3903 54.0824 14.815C54.2558 15.231 54.4898 15.5907 54.7844 15.894C55.0878 16.1973 55.4431 16.44 55.8504 16.622C56.2578 16.7953 56.6954 16.882 57.1634 16.882C57.6314 16.882 58.0691 16.7953 58.4764 16.622C58.8924 16.44 59.2478 16.1973 59.5424 15.894C59.8458 15.5907 60.0841 15.231 60.2574 14.815C60.4308 14.3903 60.5174 13.9353 60.5174 13.45ZM62.0345 10.109V8.9H69.7955V10.109H66.5975V18H65.2325V10.109H62.0345ZM70.9376 18V8.9H77.6456V10.096H72.3026V12.826H75.8126V13.996H72.3026V16.804H77.6976V18H70.9376ZM79.1007 18V8.9H82.3117C82.9964 8.9 83.6291 9.017 84.2097 9.251C84.7991 9.47633 85.3061 9.79267 85.7307 10.2C86.1641 10.5987 86.5021 11.0797 86.7447 11.643C86.9874 12.2063 87.1087 12.813 87.1087 13.463C87.1087 14.113 86.9874 14.7153 86.7447 15.27C86.5021 15.8247 86.1684 16.3057 85.7437 16.713C85.3191 17.1117 84.8121 17.428 84.2227 17.662C83.6334 17.8873 82.9964 18 82.3117 18H79.1007ZM82.3377 10.122H80.4657V16.778H82.3377C82.8057 16.778 83.2477 16.6957 83.6637 16.531C84.0797 16.3577 84.4351 16.1237 84.7297 15.829C85.0331 15.5257 85.2714 15.1747 85.4447 14.776C85.6181 14.3687 85.7047 13.931 85.7047 13.463C85.7047 12.995 85.6181 12.5573 85.4447 12.15C85.2714 11.734 85.0331 11.3787 84.7297 11.084C84.4351 10.7807 84.0797 10.5467 83.6637 10.382C83.2477 10.2087 82.8057 10.122 82.3377 10.122Z" fill="white"/>
<defs>
<linearGradient id="paint0_linear" x1="1.1721" y1="13" x2="103" y2="13" gradientUnits="userSpaceOnUse">
<stop stop-color="#D29C33"/>
<stop offset="1" stop-color="#E6BB4F"/>
</linearGradient>
</defs>
</svg>
