<svg width="94" height="26" viewBox="0 0 94 26" fill="none" xmlns="http://www.w3.org/2000/svg">
<path d="M0 0H93.4112L87.8921 12.9916L93.4112 25.9831H0V0Z" fill="url(#paint0_linear)"/>
<path d="M13.6286 17.9916V8.89158H20.3496V10.0876H14.9936V12.8826H18.5296V14.0526H14.9936V17.9916H13.6286ZM21.6901 17.9916V8.89158H28.3981V10.0876H23.0551V12.8176H26.5651V13.9876H23.0551V16.7956H28.4501V17.9916H21.6901ZM29.1463 17.9916L32.9163 8.89158H34.5153L38.2333 17.9916H36.7513L35.6983 15.3266H31.6293L30.5633 17.9916H29.1463ZM32.0843 14.1956H35.2563L33.6703 10.2046L32.0843 14.1956ZM36.7557 10.1006V8.89158H44.5167V10.1006H41.3187V17.9916H39.9537V10.1006H36.7557ZM53.2378 14.1046C53.2378 14.7199 53.1468 15.2789 52.9648 15.7816C52.7828 16.2756 52.5228 16.6959 52.1848 17.0426C51.8555 17.3892 51.4482 17.6579 50.9628 17.8486C50.4862 18.0392 49.9532 18.1346 49.3638 18.1346C48.1852 18.1346 47.2448 17.7706 46.5428 17.0426C45.8495 16.3146 45.5028 15.3352 45.5028 14.1046V8.89158H46.8678V14.1046C46.8678 14.9452 47.0932 15.6169 47.5438 16.1196C48.0032 16.6222 48.6098 16.8736 49.3638 16.8736C50.1265 16.8736 50.7332 16.6222 51.1838 16.1196C51.6432 15.6169 51.8728 14.9452 51.8728 14.1046V8.89158H53.2378V14.1046ZM54.9137 17.9916V8.89158H59.0477C59.9491 8.89158 60.6771 9.14291 61.2317 9.64558C61.7951 10.1396 62.0767 10.7852 62.0767 11.5826C62.0767 12.1806 61.9077 12.7006 61.5697 13.1426C61.2317 13.5759 60.7767 13.8879 60.2047 14.0786L62.2327 17.9916H60.7247L58.8397 14.2606H56.2787V17.9916H54.9137ZM58.9307 10.0876H56.2787V13.1296H58.9307C59.4594 13.1296 59.8841 12.9909 60.2047 12.7136C60.5341 12.4276 60.6987 12.0592 60.6987 11.6086C60.6987 11.1492 60.5341 10.7809 60.2047 10.5036C59.8841 10.2262 59.4594 10.0876 58.9307 10.0876ZM63.4831 17.9916V8.89158H70.1911V10.0876H64.8481V12.8176H68.3581V13.9876H64.8481V16.7956H70.2431V17.9916H63.4831ZM71.6461 17.9916V8.89158H74.8571C75.5418 8.89158 76.1745 9.00858 76.7551 9.24258C77.3445 9.46791 77.8515 9.78424 78.2761 10.1916C78.7095 10.5902 79.0475 11.0712 79.2901 11.6346C79.5328 12.1979 79.6541 12.8046 79.6541 13.4546C79.6541 14.1046 79.5328 14.7069 79.2901 15.2616C79.0475 15.8162 78.7138 16.2972 78.2891 16.7046C77.8645 17.1032 77.3575 17.4196 76.7681 17.6536C76.1788 17.8789 75.5418 17.9916 74.8571 17.9916H71.6461ZM74.8831 10.1136H73.0111V16.7696H74.8831C75.3511 16.7696 75.7931 16.6872 76.2091 16.5226C76.6251 16.3492 76.9805 16.1152 77.2751 15.8206C77.5785 15.5172 77.8168 15.1662 77.9901 14.7676C78.1635 14.3602 78.2501 13.9226 78.2501 13.4546C78.2501 12.9866 78.1635 12.5489 77.9901 12.1416C77.8168 11.7256 77.5785 11.3702 77.2751 11.0756C76.9805 10.7722 76.6251 10.5382 76.2091 10.3736C75.7931 10.2002 75.3511 10.1136 74.8831 10.1136Z" fill="white"/>
<defs>
<linearGradient id="paint0_linear" x1="0" y1="12.9916" x2="93.4112" y2="12.9916" gradientUnits="userSpaceOnUse">
<stop stop-color="#5F4FFF"/>
<stop offset="1" stop-color="#2E6DE7"/>
</linearGradient>
</defs>
</svg>
