<svg width="44" height="49" viewBox="0 0 44 49" fill="none" xmlns="http://www.w3.org/2000/svg">
<path d="M19.8853 11.8863C19.8853 19.4912 20.1841 22.6424 19.5114 24.5383C18.8386 26.4342 17.4626 27.5963 15.6889 28.3302C13.9153 29.0641 10.2458 28.5137 8.68624 25.8227C7.12668 23.1317 7.95233 20.0737 9.26725 18.6671C10.5822 17.2604 12.1948 16.5265 14.1905 16.5265C15.3781 16.5265 15.5357 16.6969 15.5357 16.6969V12.3933V8.5908L14.8153 8.50631C9.85801 8.25281 5.18238 10.5906 2.4784 14.6466C-1.23957 20.1672 -0.732577 27.2933 3.71772 32.1098C6.64703 35.2644 9.85801 36.7009 14.1111 36.7009C17.0123 36.7009 18.9558 36.2221 21.2936 34.8701C23.3216 33.7153 25.7721 31.1521 26.7297 29.2087C28.2789 26.0258 28.3352 25.4343 28.3352 12.1961V3.39563e-05H24.1102H19.8853V11.8863Z" fill="#92CBFF"/>
<path d="M35.7062 12.8409C35.7062 26.9892 35.619 27.7445 33.934 31.2017C32.2781 34.5717 29.2276 37.6803 26.061 39.1619L24.376 39.9463V44.0717C24.376 46.3668 24.405 48.2261 24.4631 48.2261C24.5212 48.2261 25.509 47.9065 26.7001 47.4998C35.5609 44.4784 42.0685 36.6925 43.5502 27.3088C43.6954 26.2338 43.8407 19.9296 43.8407 12.6957V3.16799e-05H39.7735H35.7062V12.8409Z" fill="#92CBFF"/>
</svg>
