<svg width="54" height="59" viewBox="0 0 54 59" fill="none" xmlns="http://www.w3.org/2000/svg">
<path d="M24.6203 14.7427C24.6203 23.9015 24.9802 27.6966 24.17 29.9799C23.3598 32.2632 21.7025 33.6627 19.5665 34.5465C17.4305 35.4304 13.0112 34.7675 11.133 31.5267C9.25475 28.2858 10.2491 24.603 11.8327 22.909C13.4163 21.2149 15.3585 20.331 17.762 20.331C19.1922 20.331 19.382 20.5363 19.382 20.5363V15.3533V10.7739L18.5144 10.6721C12.5442 10.3668 6.91316 13.1823 3.65668 18.067C-0.820979 24.7157 -0.210388 33.2978 5.14924 39.0985C8.67709 42.8977 12.5442 44.6277 17.6663 44.6277C21.1603 44.6277 23.5009 44.051 26.3164 42.4228C28.7587 41.032 31.7099 37.9451 32.8632 35.6045C34.7289 31.7714 34.7968 31.059 34.7968 15.1158V0.427738H29.7085H24.6203V14.7427Z" fill="#4F3DFE"/>
<path d="M43.6742 15.8926C43.6742 32.9317 43.5692 33.8414 41.5399 38.005C39.5456 42.0636 35.8719 45.8073 32.0582 47.5917L30.0289 48.5364V53.5047C30.0289 56.2687 30.0639 58.5079 30.1338 58.5079C30.2038 58.5079 31.3934 58.1231 32.8279 57.6332C43.4992 53.9945 51.3365 44.6177 53.1209 33.3166C53.2959 32.022 53.4708 24.4297 53.4708 15.7177V0.42791H48.5725H43.6742V15.8926Z" fill="#4F3DFE"/>
</svg>
