<svg width="48" height="63" viewBox="0 0 48 63" fill="none" xmlns="http://www.w3.org/2000/svg">
<path d="M13.9089 19.8868C11.0833 23.8665 5.8235 27.2463 3.13841 35.7108C0.453314 44.1754 -0.607327 61.3301 24.1962 61.3301C48.9996 61.3301 47.6252 42.7861 44.5635 35.1423C41.5019 27.4985 36.1806 23.2032 34.071 19.8868M13.9089 19.8868H34.071M13.9089 19.8868C10.1028 19.8868 9.17698 13.633 13.9089 13.633M34.071 19.8868C38.9058 19.8868 39.0087 13.7846 34.071 13.633M34.071 13.633C28.9276 13.633 17.6944 13.633 13.9089 13.633M34.071 13.633L36.7456 3.58904C36.1507 2.57832 34.0695 1.25807 30.5041 4.06281C28.0324 6.00715 26.8703 2.16772 24.1957 2.16772C21.5211 2.16773 20.6085 4.7261 18.6408 4.7261C16.6732 4.7261 13.3675 1.23913 10.5907 3.21003L13.9089 13.633M24.1935 29.4165V49.5896M19.2122 45.9505C23.0518 47.5327 28.9171 46.979 28.4877 42.7861C28.0583 38.5933 22.8623 38.8702 20.7582 36.932C18.654 34.9938 20.3287 29.8121 26.9418 32.2645" stroke="white" stroke-width="2.6" stroke-linecap="round"/>
</svg>
