<svg width="250" height="54" viewBox="0 0 250 54" fill="none" xmlns="http://www.w3.org/2000/svg">
<path d="M239.5 0.5H10.5C4.97715 0.5 0.5 4.97715 0.5 10.5V43.5C0.5 49.0228 4.97715 53.5 10.5 53.5H239.5C245.023 53.5 249.5 49.0228 249.5 43.5V10.5C249.5 4.97715 245.023 0.5 239.5 0.5Z" fill="white" stroke="#EA532A"/>
<path d="M53.7622 17.6226V20H52.6504V13.6016H55.0981C55.813 13.6016 56.3799 13.7876 56.7988 14.1597C57.2207 14.5317 57.4316 15.0239 57.4316 15.6362C57.4316 16.2632 57.2251 16.751 56.812 17.0996C56.4019 17.4482 55.8262 17.6226 55.085 17.6226H53.7622ZM53.7622 16.7305H55.0981C55.4937 16.7305 55.7954 16.6382 56.0034 16.4536C56.2114 16.2661 56.3154 15.9966 56.3154 15.645C56.3154 15.2993 56.21 15.0239 55.999 14.8188C55.7881 14.6108 55.498 14.5039 55.1289 14.498H53.7622V16.7305ZM60.7935 16.2207C60.6528 16.1973 60.5078 16.1855 60.3584 16.1855C59.8691 16.1855 59.5396 16.373 59.3696 16.748V20H58.3018V15.2451H59.3213L59.3477 15.7769C59.6055 15.3638 59.9629 15.1572 60.4199 15.1572C60.5723 15.1572 60.6982 15.1777 60.7979 15.2188L60.7935 16.2207ZM61.1099 17.5786C61.1099 17.1128 61.2021 16.6938 61.3867 16.3218C61.5713 15.9468 61.8306 15.6597 62.1646 15.4604C62.4985 15.2583 62.8823 15.1572 63.3159 15.1572C63.9575 15.1572 64.4775 15.3638 64.876 15.7769C65.2773 16.1899 65.4941 16.7378 65.5264 17.4204L65.5308 17.6709C65.5308 18.1396 65.4399 18.5586 65.2583 18.9277C65.0796 19.2969 64.8218 19.5825 64.4849 19.7847C64.1509 19.9868 63.7642 20.0879 63.3247 20.0879C62.6538 20.0879 62.1162 19.8652 61.7119 19.4199C61.3105 18.9717 61.1099 18.3755 61.1099 17.6313V17.5786ZM62.1777 17.6709C62.1777 18.1602 62.2788 18.5439 62.481 18.8223C62.6831 19.0977 62.9644 19.2354 63.3247 19.2354C63.6851 19.2354 63.9648 19.0947 64.1641 18.8135C64.3662 18.5322 64.4673 18.1206 64.4673 17.5786C64.4673 17.0981 64.3633 16.7173 64.1553 16.436C63.9502 16.1548 63.6704 16.0142 63.3159 16.0142C62.9673 16.0142 62.6904 16.1533 62.4854 16.4316C62.2803 16.707 62.1777 17.1201 62.1777 17.6709ZM66.2339 17.5874C66.2339 16.855 66.4038 16.2676 66.7437 15.8252C67.0835 15.3799 67.5391 15.1572 68.1104 15.1572C68.6143 15.1572 69.0215 15.333 69.332 15.6846V13.25H70.3999V20H69.4331L69.3804 19.5078C69.061 19.8945 68.6348 20.0879 68.1016 20.0879C67.5449 20.0879 67.0938 19.8638 66.748 19.4155C66.4053 18.9673 66.2339 18.3579 66.2339 17.5874ZM67.3018 17.6797C67.3018 18.1631 67.394 18.541 67.5786 18.8135C67.7661 19.083 68.0312 19.2178 68.374 19.2178C68.8105 19.2178 69.1299 19.0229 69.332 18.6333V16.603C69.1357 16.2222 68.8193 16.0317 68.3828 16.0317C68.0371 16.0317 67.7705 16.1694 67.583 16.4448C67.3955 16.7173 67.3018 17.1289 67.3018 17.6797ZM74.3945 19.5342C74.0811 19.9033 73.6357 20.0879 73.0586 20.0879C72.543 20.0879 72.1519 19.937 71.8853 19.6353C71.6216 19.3335 71.4897 18.897 71.4897 18.3257V15.2451H72.5576V18.3125C72.5576 18.916 72.8081 19.2178 73.3091 19.2178C73.8276 19.2178 74.1777 19.0317 74.3594 18.6597V15.2451H75.4272V20H74.4209L74.3945 19.5342ZM78.4683 19.2354C78.7349 19.2354 78.9561 19.1577 79.1318 19.0024C79.3076 18.8472 79.4014 18.6553 79.4131 18.4268H80.4194C80.4077 18.7227 80.3154 18.9995 80.1426 19.2573C79.9697 19.5122 79.7354 19.7144 79.4395 19.8638C79.1436 20.0132 78.8242 20.0879 78.4814 20.0879C77.8164 20.0879 77.2891 19.8726 76.8994 19.4419C76.5098 19.0112 76.3149 18.4165 76.3149 17.6577V17.5479C76.3149 16.8242 76.5083 16.2456 76.895 15.812C77.2817 15.3755 77.8091 15.1572 78.4771 15.1572C79.0425 15.1572 79.5024 15.3228 79.8569 15.6538C80.2144 15.9819 80.4019 16.4141 80.4194 16.9502H79.4131C79.4014 16.6777 79.3076 16.4536 79.1318 16.2778C78.959 16.1021 78.7378 16.0142 78.4683 16.0142C78.1226 16.0142 77.856 16.1401 77.6685 16.3921C77.481 16.6411 77.3857 17.0205 77.3828 17.5303V17.7017C77.3828 18.2173 77.4751 18.6025 77.6597 18.8574C77.8472 19.1094 78.1167 19.2354 78.4683 19.2354ZM82.564 14.0894V15.2451H83.4033V16.0361H82.564V18.6904C82.564 18.8721 82.5991 19.0039 82.6694 19.0859C82.7427 19.165 82.8716 19.2046 83.0562 19.2046C83.1792 19.2046 83.3037 19.1899 83.4297 19.1606V19.9868C83.1865 20.0542 82.9521 20.0879 82.7266 20.0879C81.9062 20.0879 81.4961 19.6353 81.4961 18.73V16.0361H80.7139V15.2451H81.4961V14.0894H82.564ZM91.6475 20H90.54V17.1567H87.6792V20H86.5674V13.6016H87.6792V16.2646H90.54V13.6016H91.6475V20ZM95.7432 19.5342C95.4297 19.9033 94.9844 20.0879 94.4072 20.0879C93.8916 20.0879 93.5005 19.937 93.2339 19.6353C92.9702 19.3335 92.8384 18.897 92.8384 18.3257V15.2451H93.9062V18.3125C93.9062 18.916 94.1567 19.2178 94.6577 19.2178C95.1763 19.2178 95.5264 19.0317 95.708 18.6597V15.2451H96.7759V20H95.7695L95.7432 19.5342ZM98.8545 15.2451L98.8853 15.7944C99.2368 15.3696 99.6982 15.1572 100.27 15.1572C101.26 15.1572 101.764 15.7241 101.781 16.8579V20H100.713V16.9194C100.713 16.6177 100.647 16.395 100.516 16.2515C100.387 16.105 100.174 16.0317 99.8784 16.0317C99.4478 16.0317 99.127 16.2266 98.916 16.6162V20H97.8481V15.2451H98.8545ZM104.211 14.0894V15.2451H105.051V16.0361H104.211V18.6904C104.211 18.8721 104.247 19.0039 104.317 19.0859C104.39 19.165 104.519 19.2046 104.704 19.2046C104.827 19.2046 104.951 19.1899 105.077 19.1606V19.9868C104.834 20.0542 104.6 20.0879 104.374 20.0879C103.554 20.0879 103.144 19.6353 103.144 18.73V16.0361H102.361V15.2451H103.144V14.0894H104.211Z" fill="#EA532A"/>
<path d="M57.6172 35.7969H55.8672L55.2734 39H53.9609L54.5547 35.7969H52.75V34.5625H54.7891L55.2422 32.1172H53.3438V30.875H55.4766L56.0859 27.625H57.3906L56.7812 30.875H58.5391L59.1484 27.625H60.4531L59.8438 30.875H61.4688V32.1172H59.6094L59.1562 34.5625H60.8828V35.7969H58.9219L58.3281 39H57.0234L57.6172 35.7969ZM56.1016 34.5625H57.8516L58.3047 32.1172H56.5547L56.1016 34.5625ZM64.8125 32.4453H65.9688C66.5521 32.4401 67.013 32.2891 67.3516 31.9922C67.6953 31.6953 67.8672 31.2656 67.8672 30.7031C67.8672 30.1615 67.724 29.7422 67.4375 29.4453C67.1562 29.1432 66.724 28.9922 66.1406 28.9922C65.6302 28.9922 65.2109 29.1406 64.8828 29.4375C64.5547 29.7292 64.3906 30.112 64.3906 30.5859H62.4922C62.4922 30.0026 62.6458 29.4714 62.9531 28.9922C63.2656 28.513 63.6979 28.1406 64.25 27.875C64.8073 27.6042 65.4297 27.4688 66.1172 27.4688C67.2526 27.4688 68.1432 27.7552 68.7891 28.3281C69.4401 28.8958 69.7656 29.6875 69.7656 30.7031C69.7656 31.2135 69.6016 31.6953 69.2734 32.1484C68.9505 32.5964 68.5312 32.9349 68.0156 33.1641C68.6406 33.3776 69.1146 33.7135 69.4375 34.1719C69.7656 34.6302 69.9297 35.1771 69.9297 35.8125C69.9297 36.8333 69.5781 37.6458 68.875 38.25C68.1771 38.8542 67.2578 39.1562 66.1172 39.1562C65.0234 39.1562 64.1276 38.8646 63.4297 38.2812C62.7318 37.6979 62.3828 36.9219 62.3828 35.9531H64.2812C64.2812 36.4531 64.4479 36.8594 64.7812 37.1719C65.1198 37.4844 65.5729 37.6406 66.1406 37.6406C66.7292 37.6406 67.1927 37.4844 67.5312 37.1719C67.8698 36.8594 68.0391 36.4062 68.0391 35.8125C68.0391 35.2135 67.862 34.7526 67.5078 34.4297C67.1536 34.1068 66.6276 33.9453 65.9297 33.9453H64.8125V32.4453ZM77.9766 34.7734V39H76V27.625H80.3516C81.6224 27.625 82.6302 27.9557 83.375 28.6172C84.125 29.2786 84.5 30.1536 84.5 31.2422C84.5 32.3568 84.1328 33.224 83.3984 33.8438C82.6693 34.4635 81.6458 34.7734 80.3281 34.7734H77.9766ZM77.9766 33.1875H80.3516C81.0547 33.1875 81.5911 33.0234 81.9609 32.6953C82.3307 32.362 82.5156 31.8828 82.5156 31.2578C82.5156 30.6432 82.3281 30.1536 81.9531 29.7891C81.5781 29.4193 81.0625 29.2292 80.4062 29.2188H77.9766V33.1875ZM90.4766 32.2812C90.2266 32.2396 89.9688 32.2188 89.7031 32.2188C88.8333 32.2188 88.2474 32.5521 87.9453 33.2188V39H86.0469V30.5469H87.8594L87.9062 31.4922C88.3646 30.7578 89 30.3906 89.8125 30.3906C90.0833 30.3906 90.3073 30.4271 90.4844 30.5L90.4766 32.2812ZM91.0391 34.6953C91.0391 33.8672 91.2031 33.1224 91.5312 32.4609C91.8594 31.7943 92.3203 31.2839 92.9141 30.9297C93.5078 30.5703 94.1901 30.3906 94.9609 30.3906C96.1016 30.3906 97.026 30.7578 97.7344 31.4922C98.4479 32.2266 98.8333 33.2005 98.8906 34.4141L98.8984 34.8594C98.8984 35.6927 98.737 36.4375 98.4141 37.0938C98.0964 37.75 97.638 38.2578 97.0391 38.6172C96.4453 38.9766 95.7578 39.1562 94.9766 39.1562C93.7839 39.1562 92.8281 38.7604 92.1094 37.9688C91.3958 37.1719 91.0391 36.112 91.0391 34.7891V34.6953ZM92.9375 34.8594C92.9375 35.7292 93.1172 36.4115 93.4766 36.9062C93.8359 37.3958 94.3359 37.6406 94.9766 37.6406C95.6172 37.6406 96.1146 37.3906 96.4688 36.8906C96.8281 36.3906 97.0078 35.6589 97.0078 34.6953C97.0078 33.8411 96.8229 33.1641 96.4531 32.6641C96.0885 32.1641 95.5911 31.9141 94.9609 31.9141C94.3411 31.9141 93.849 32.1615 93.4844 32.6562C93.1198 33.1458 92.9375 33.8802 92.9375 34.8594ZM100.148 34.7109C100.148 33.4089 100.451 32.3646 101.055 31.5781C101.659 30.7865 102.469 30.3906 103.484 30.3906C104.38 30.3906 105.104 30.7031 105.656 31.3281V27H107.555V39H105.836L105.742 38.125C105.174 38.8125 104.417 39.1562 103.469 39.1562C102.479 39.1562 101.677 38.7578 101.062 37.9609C100.453 37.1641 100.148 36.0807 100.148 34.7109ZM102.047 34.875C102.047 35.7344 102.211 36.4062 102.539 36.8906C102.872 37.3698 103.344 37.6094 103.953 37.6094C104.729 37.6094 105.297 37.263 105.656 36.5703V32.9609C105.307 32.2839 104.745 31.9453 103.969 31.9453C103.354 31.9453 102.88 32.1901 102.547 32.6797C102.214 33.1641 102.047 33.8958 102.047 34.875ZM114.656 38.1719C114.099 38.8281 113.307 39.1562 112.281 39.1562C111.365 39.1562 110.669 38.888 110.195 38.3516C109.727 37.8151 109.492 37.0391 109.492 36.0234V30.5469H111.391V36C111.391 37.0729 111.836 37.6094 112.727 37.6094C113.648 37.6094 114.271 37.2786 114.594 36.6172V30.5469H116.492V39H114.703L114.656 38.1719ZM121.898 37.6406C122.372 37.6406 122.766 37.5026 123.078 37.2266C123.391 36.9505 123.557 36.6094 123.578 36.2031H125.367C125.346 36.7292 125.182 37.2214 124.875 37.6797C124.568 38.1328 124.151 38.4922 123.625 38.7578C123.099 39.0234 122.531 39.1562 121.922 39.1562C120.74 39.1562 119.802 38.7734 119.109 38.0078C118.417 37.2422 118.07 36.1849 118.07 34.8359V34.6406C118.07 33.3542 118.414 32.3255 119.102 31.5547C119.789 30.7786 120.727 30.3906 121.914 30.3906C122.919 30.3906 123.737 30.6849 124.367 31.2734C125.003 31.8568 125.336 32.625 125.367 33.5781H123.578C123.557 33.0938 123.391 32.6953 123.078 32.3828C122.771 32.0703 122.378 31.9141 121.898 31.9141C121.284 31.9141 120.81 32.138 120.477 32.5859C120.143 33.0286 119.974 33.7031 119.969 34.6094V34.9141C119.969 35.8307 120.133 36.5156 120.461 36.9688C120.794 37.4167 121.273 37.6406 121.898 37.6406ZM129.18 28.4922V30.5469H130.672V31.9531H129.18V36.6719C129.18 36.9948 129.242 37.2292 129.367 37.375C129.497 37.5156 129.727 37.5859 130.055 37.5859C130.273 37.5859 130.495 37.5599 130.719 37.5078V38.9766C130.286 39.0964 129.87 39.1562 129.469 39.1562C128.01 39.1562 127.281 38.3516 127.281 36.7422V31.9531H125.891V30.5469H127.281V28.4922H129.18ZM135.758 34.6953C135.758 33.8672 135.922 33.1224 136.25 32.4609C136.578 31.7943 137.039 31.2839 137.633 30.9297C138.227 30.5703 138.909 30.3906 139.68 30.3906C140.82 30.3906 141.745 30.7578 142.453 31.4922C143.167 32.2266 143.552 33.2005 143.609 34.4141L143.617 34.8594C143.617 35.6927 143.456 36.4375 143.133 37.0938C142.815 37.75 142.357 38.2578 141.758 38.6172C141.164 38.9766 140.477 39.1562 139.695 39.1562C138.503 39.1562 137.547 38.7604 136.828 37.9688C136.115 37.1719 135.758 36.112 135.758 34.7891V34.6953ZM137.656 34.8594C137.656 35.7292 137.836 36.4115 138.195 36.9062C138.555 37.3958 139.055 37.6406 139.695 37.6406C140.336 37.6406 140.833 37.3906 141.188 36.8906C141.547 36.3906 141.727 35.6589 141.727 34.6953C141.727 33.8411 141.542 33.1641 141.172 32.6641C140.807 32.1641 140.31 31.9141 139.68 31.9141C139.06 31.9141 138.568 32.1615 138.203 32.6562C137.839 33.1458 137.656 33.8802 137.656 34.8594ZM145.891 39V31.9531H144.602V30.5469H145.891V29.7734C145.891 28.8359 146.151 28.112 146.672 27.6016C147.193 27.0911 147.922 26.8359 148.859 26.8359C149.193 26.8359 149.547 26.8828 149.922 26.9766L149.875 28.4609C149.667 28.4193 149.424 28.3984 149.148 28.3984C148.242 28.3984 147.789 28.8646 147.789 29.7969V30.5469H149.508V31.9531H147.789V39H145.891ZM157.258 28.4922V30.5469H158.75V31.9531H157.258V36.6719C157.258 36.9948 157.32 37.2292 157.445 37.375C157.576 37.5156 157.805 37.5859 158.133 37.5859C158.352 37.5859 158.573 37.5599 158.797 37.5078V38.9766C158.365 39.0964 157.948 39.1562 157.547 39.1562C156.089 39.1562 155.359 38.3516 155.359 36.7422V31.9531H153.969V30.5469H155.359V28.4922H157.258ZM162.078 31.4688C162.698 30.75 163.482 30.3906 164.43 30.3906C166.232 30.3906 167.146 31.4193 167.172 33.4766V39H165.273V33.5469C165.273 32.9635 165.146 32.5521 164.891 32.3125C164.641 32.0677 164.271 31.9453 163.781 31.9453C163.021 31.9453 162.453 32.2839 162.078 32.9609V39H160.18V27H162.078V31.4688ZM172.82 39.1562C171.617 39.1562 170.641 38.7786 169.891 38.0234C169.146 37.263 168.773 36.2526 168.773 34.9922V34.7578C168.773 33.9141 168.935 33.1615 169.258 32.5C169.586 31.8333 170.044 31.3151 170.633 30.9453C171.221 30.5755 171.878 30.3906 172.602 30.3906C173.753 30.3906 174.641 30.7578 175.266 31.4922C175.896 32.2266 176.211 33.2656 176.211 34.6094V35.375H170.688C170.745 36.0729 170.977 36.625 171.383 37.0312C171.794 37.4375 172.31 37.6406 172.93 37.6406C173.799 37.6406 174.508 37.2891 175.055 36.5859L176.078 37.5625C175.74 38.0677 175.286 38.4609 174.719 38.7422C174.156 39.0182 173.523 39.1562 172.82 39.1562ZM172.594 31.9141C172.073 31.9141 171.651 32.0964 171.328 32.4609C171.01 32.8255 170.807 33.3333 170.719 33.9844H174.336V33.8438C174.294 33.2083 174.125 32.7292 173.828 32.4062C173.531 32.0781 173.12 31.9141 172.594 31.9141ZM181.859 39V27.625H185.219C186.224 27.625 187.115 27.849 187.891 28.2969C188.672 28.7448 189.276 29.3802 189.703 30.2031C190.13 31.026 190.344 31.9688 190.344 33.0312V33.6016C190.344 34.6797 190.128 35.6276 189.695 36.4453C189.268 37.263 188.656 37.8932 187.859 38.3359C187.068 38.7786 186.159 39 185.133 39H181.859ZM183.836 29.2188V37.4219H185.125C186.161 37.4219 186.956 37.099 187.508 36.4531C188.065 35.8021 188.349 34.8698 188.359 33.6562V33.0234C188.359 31.7891 188.091 30.8464 187.555 30.1953C187.018 29.5443 186.24 29.2188 185.219 29.2188H183.836ZM197.18 39C197.096 38.8385 197.023 38.5755 196.961 38.2109C196.357 38.8411 195.617 39.1562 194.742 39.1562C193.893 39.1562 193.201 38.9141 192.664 38.4297C192.128 37.9453 191.859 37.3464 191.859 36.6328C191.859 35.7318 192.193 35.0417 192.859 34.5625C193.531 34.0781 194.49 33.8359 195.734 33.8359H196.898V33.2812C196.898 32.8438 196.776 32.4948 196.531 32.2344C196.286 31.9688 195.914 31.8359 195.414 31.8359C194.982 31.8359 194.628 31.9453 194.352 32.1641C194.076 32.3776 193.938 32.651 193.938 32.9844H192.039C192.039 32.5208 192.193 32.0885 192.5 31.6875C192.807 31.2812 193.224 30.9635 193.75 30.7344C194.281 30.5052 194.872 30.3906 195.523 30.3906C196.513 30.3906 197.302 30.6406 197.891 31.1406C198.479 31.6354 198.781 32.3333 198.797 33.2344V37.0469C198.797 37.8073 198.904 38.4141 199.117 38.8672V39H197.18ZM195.094 37.6328C195.469 37.6328 195.82 37.5417 196.148 37.3594C196.482 37.1771 196.732 36.9323 196.898 36.625V35.0312H195.875C195.172 35.0312 194.643 35.1536 194.289 35.3984C193.935 35.6432 193.758 35.9896 193.758 36.4375C193.758 36.8021 193.878 37.0938 194.117 37.3125C194.362 37.526 194.688 37.6328 195.094 37.6328ZM203.617 36.2812L205.336 30.5469H207.359L204 40.2812C203.484 41.7031 202.609 42.4141 201.375 42.4141C201.099 42.4141 200.794 42.3672 200.461 42.2734V40.8047L200.82 40.8281C201.299 40.8281 201.659 40.7396 201.898 40.5625C202.143 40.3906 202.336 40.099 202.477 39.6875L202.75 38.9609L199.781 30.5469H201.828L203.617 36.2812Z" fill="#EA532A"/>
<path d="M21.33 29.364L17.328 37.9C17.202 38.158 17.335 38.32 17.755 38.24L21.013 37.532C21.0776 37.5094 21.1487 37.515 21.2089 37.5473C21.2692 37.5796 21.3131 37.6357 21.33 37.702L22.797 40.709C22.937 41.033 23.099 41.099 23.225 40.842L27.485 31.908L21.33 29.364ZM33.67 29.364L37.672 37.9C37.805 38.158 37.665 38.32 37.245 38.24L33.987 37.532C33.9225 37.5101 33.8517 37.5159 33.7916 37.5481C33.7315 37.5804 33.6875 37.6361 33.67 37.702L32.203 40.709C32.063 41.033 31.908 41.099 31.775 40.842L27.515 31.908L33.67 29.364Z" fill="#DE7818"/>
<path fill-rule="evenodd" clip-rule="evenodd" d="M26.298 34.392C26.298 34.399 26.284 34.392 26.269 34.392C24.0358 34.1443 21.9421 33.1826 20.299 31.65C20.291 31.642 20.269 31.635 20.276 31.627L20.46 31.237C20.468 31.222 20.482 31.259 20.49 31.267C22.067 32.733 24.257 33.655 26.497 33.927C26.505 33.927 26.52 33.927 26.52 33.935L26.298 34.392Z" fill="#B35454"/>
<path d="M27.5 33.978C33.2929 33.978 37.989 29.2819 37.989 23.489C37.989 17.6961 33.2929 13 27.5 13C21.7071 13 17.011 17.6961 17.011 23.489C17.011 29.2819 21.7071 33.978 27.5 33.978Z" fill="#A54E24"/>
<path d="M27.5001 32.534C32.4955 32.534 36.5451 28.4844 36.5451 23.489C36.5451 18.4936 32.4955 14.444 27.5001 14.444C22.5047 14.444 18.4551 18.4936 18.4551 23.489C18.4551 28.4844 22.5047 32.534 27.5001 32.534Z" fill="#A76236"/>
<path d="M27.75 32.5C32.5825 32.5 36.5 28.5825 36.5 23.75C36.5 18.9175 32.5825 15 27.75 15C22.9175 15 19 18.9175 19 23.75C19 28.5825 22.9175 32.5 27.75 32.5Z" fill="#BD6E3C"/>
<path fill-rule="evenodd" clip-rule="evenodd" d="M26.35 24.404H27.387C28.207 24.404 28.705 24.802 28.705 25.452C28.705 26.085 28.178 26.519 27.416 26.519C26.602 26.519 26.08 26.12 26.051 25.476H24C24.076 27.134 25.406 28.212 27.38 28.212C29.45 28.212 30.89 27.146 30.89 25.616C30.89 24.526 30.146 23.759 28.98 23.636V23.525C29.93 23.349 30.58 22.581 30.58 21.609C30.58 20.243 29.291 19.3 27.416 19.3C25.453 19.3 24.188 20.355 24.158 22.007H26.11C26.134 21.345 26.632 20.905 27.37 20.905C28.12 20.905 28.583 21.286 28.583 21.902C28.583 22.517 28.108 22.922 27.388 22.922H26.35V24.404Z" fill="#FFC07A"/>
<path opacity="0.618" fill-rule="evenodd" clip-rule="evenodd" d="M29.97 16.089C33.3261 16.8911 35.7213 19.8525 35.8042 23.3021C35.887 26.7517 33.6367 29.8247 30.323 30.787C32.358 29.232 33.707 26.578 33.707 23.563C33.707 20.379 32.203 17.6 29.969 16.089H29.97Z" fill="white" fill-opacity="0.2"/>
<path fill-rule="evenodd" clip-rule="evenodd" d="M28.702 34.392C28.709 34.399 28.724 34.392 28.731 34.392C31.024 34.104 33.131 33.182 34.717 31.664C34.724 31.657 34.746 31.65 34.739 31.642L34.554 31.252C34.547 31.237 34.532 31.274 34.524 31.281C32.947 32.748 30.751 33.655 28.503 33.927C28.495 33.927 28.48 33.927 28.48 33.935L28.702 34.392Z" fill="#B35454"/>
<rect y="43" width="250" height="11" fill="white"/>
<rect x="249" y="43" width="1" height="11" fill="#EA532A"/>
<rect y="43" width="1" height="11" fill="#EA532A"/>
</svg>
